<mxfile host="app.diagrams.net" modified="2020-11-22T03:11:09.363Z" agent="5.0 (Windows NT 10.0; Win64; x64) AppleWebKit/537.36 (KHTML, like Gecko) Chrome/87.0.4280.66 Safari/537.36" etag="ty1g3qvu2ueUjCrwIc3s" version="13.10.0" type="github">
  <diagram id="C5RBs43oDa-KdzZeNtuy" name="Page-1">
    <mxGraphModel dx="862" dy="1594" grid="1" gridSize="10" guides="1" tooltips="1" connect="1" arrows="1" fold="1" page="1" pageScale="1" pageWidth="827" pageHeight="1169" math="0" shadow="0">
      <root>
        <mxCell id="WIyWlLk6GJQsqaUBKTNV-0" />
        <mxCell id="WIyWlLk6GJQsqaUBKTNV-1" parent="WIyWlLk6GJQsqaUBKTNV-0" />
        <mxCell id="sIGRN8SxIELvBKpaprxZ-2" value="" style="edgeStyle=orthogonalEdgeStyle;rounded=0;orthogonalLoop=1;jettySize=auto;html=1;" edge="1" parent="WIyWlLk6GJQsqaUBKTNV-1" source="sIGRN8SxIELvBKpaprxZ-0" target="sIGRN8SxIELvBKpaprxZ-1">
          <mxGeometry relative="1" as="geometry" />
        </mxCell>
        <mxCell id="sIGRN8SxIELvBKpaprxZ-0" value="Start" style="ellipse;whiteSpace=wrap;html=1;" vertex="1" parent="WIyWlLk6GJQsqaUBKTNV-1">
          <mxGeometry x="294" y="-1160" width="120" height="80" as="geometry" />
        </mxCell>
        <mxCell id="sIGRN8SxIELvBKpaprxZ-4" value="" style="edgeStyle=orthogonalEdgeStyle;rounded=0;orthogonalLoop=1;jettySize=auto;html=1;" edge="1" parent="WIyWlLk6GJQsqaUBKTNV-1" source="sIGRN8SxIELvBKpaprxZ-1" target="sIGRN8SxIELvBKpaprxZ-3">
          <mxGeometry relative="1" as="geometry" />
        </mxCell>
        <mxCell id="sIGRN8SxIELvBKpaprxZ-1" value="x = 25" style="whiteSpace=wrap;html=1;" vertex="1" parent="WIyWlLk6GJQsqaUBKTNV-1">
          <mxGeometry x="294" y="-1040" width="120" height="60" as="geometry" />
        </mxCell>
        <mxCell id="sIGRN8SxIELvBKpaprxZ-7" value="" style="edgeStyle=orthogonalEdgeStyle;rounded=0;orthogonalLoop=1;jettySize=auto;html=1;" edge="1" parent="WIyWlLk6GJQsqaUBKTNV-1" source="sIGRN8SxIELvBKpaprxZ-3" target="sIGRN8SxIELvBKpaprxZ-6">
          <mxGeometry relative="1" as="geometry" />
        </mxCell>
        <mxCell id="sIGRN8SxIELvBKpaprxZ-13" value="" style="edgeStyle=orthogonalEdgeStyle;rounded=0;orthogonalLoop=1;jettySize=auto;html=1;" edge="1" parent="WIyWlLk6GJQsqaUBKTNV-1" source="sIGRN8SxIELvBKpaprxZ-3" target="sIGRN8SxIELvBKpaprxZ-12">
          <mxGeometry relative="1" as="geometry" />
        </mxCell>
        <mxCell id="sIGRN8SxIELvBKpaprxZ-3" value="While x &amp;gt;= 0" style="rhombus;whiteSpace=wrap;html=1;" vertex="1" parent="WIyWlLk6GJQsqaUBKTNV-1">
          <mxGeometry x="301" y="-940" width="106" height="80" as="geometry" />
        </mxCell>
        <mxCell id="sIGRN8SxIELvBKpaprxZ-9" value="" style="edgeStyle=orthogonalEdgeStyle;rounded=0;orthogonalLoop=1;jettySize=auto;html=1;" edge="1" parent="WIyWlLk6GJQsqaUBKTNV-1" source="sIGRN8SxIELvBKpaprxZ-6" target="sIGRN8SxIELvBKpaprxZ-8">
          <mxGeometry relative="1" as="geometry" />
        </mxCell>
        <mxCell id="sIGRN8SxIELvBKpaprxZ-6" value="Print x" style="shape=parallelogram;perimeter=parallelogramPerimeter;whiteSpace=wrap;html=1;fixedSize=1;" vertex="1" parent="WIyWlLk6GJQsqaUBKTNV-1">
          <mxGeometry x="460" y="-930" width="120" height="60" as="geometry" />
        </mxCell>
        <mxCell id="sIGRN8SxIELvBKpaprxZ-10" style="edgeStyle=orthogonalEdgeStyle;rounded=0;orthogonalLoop=1;jettySize=auto;html=1;exitX=0.5;exitY=0;exitDx=0;exitDy=0;" edge="1" parent="WIyWlLk6GJQsqaUBKTNV-1" source="sIGRN8SxIELvBKpaprxZ-8">
          <mxGeometry relative="1" as="geometry">
            <mxPoint x="350" y="-960" as="targetPoint" />
            <Array as="points">
              <mxPoint x="690" y="-960" />
            </Array>
          </mxGeometry>
        </mxCell>
        <mxCell id="sIGRN8SxIELvBKpaprxZ-8" value="x = x - 1" style="whiteSpace=wrap;html=1;" vertex="1" parent="WIyWlLk6GJQsqaUBKTNV-1">
          <mxGeometry x="630" y="-930" width="120" height="60" as="geometry" />
        </mxCell>
        <mxCell id="sIGRN8SxIELvBKpaprxZ-11" value="Yes" style="text;html=1;strokeColor=none;fillColor=none;align=center;verticalAlign=middle;whiteSpace=wrap;rounded=0;" vertex="1" parent="WIyWlLk6GJQsqaUBKTNV-1">
          <mxGeometry x="407" y="-920" width="40" height="20" as="geometry" />
        </mxCell>
        <mxCell id="sIGRN8SxIELvBKpaprxZ-12" value="End" style="ellipse;whiteSpace=wrap;html=1;" vertex="1" parent="WIyWlLk6GJQsqaUBKTNV-1">
          <mxGeometry x="294" y="-800" width="120" height="80" as="geometry" />
        </mxCell>
        <mxCell id="sIGRN8SxIELvBKpaprxZ-14" value="No" style="text;html=1;strokeColor=none;fillColor=none;align=center;verticalAlign=middle;whiteSpace=wrap;rounded=0;" vertex="1" parent="WIyWlLk6GJQsqaUBKTNV-1">
          <mxGeometry x="310" y="-850" width="40" height="20" as="geometry" />
        </mxCell>
      </root>
    </mxGraphModel>
  </diagram>
</mxfile>
